<svg xmlns="http://www.w3.org/2000/svg" width="184" height="184" viewBox="0 0 184 184"><path fill="#f07b02" d="M84.6933.903 100 .621 116 3l16 6 16 10 16 16 9 14 7 18 3 16v17l-3 16-6 16-10 16-16 16-14 9-18 7-16 3H83l-16-3-16-6-16-10-16-16-9-14-7-18-3-16V83l3-16 6-16 10-16 16-16 14-9 18-7 15-2ZM61 44v18s1.2745 2.9759 5 3c3.7252.1693 5-4 5-4V44Zm52 0v17s.6294 2.9436 3 3h5c2.3141.1693 3-5 3-5V44Zm-55 5-14-1s-5.04-.0287-5 5l1 88 4 3 97-1 3-4-1-88c.1596-2.7139-4-3-4-3h-12v15l-6 4h-5l-5-4V48H73v15l-5 4h-5l-5-5V50ZM47 76h89v60H47V77Zm60 7H95v13h12c.1956-4.0034 0-8.9886 0-13m20 0h-12v13h12c.1956-4.0034 0-8.9886 0-13m-58 19H55.3333v10H69Zm5 0v10h15v-10zm33 0H95v10h12zm8 0v10h12v-10Zm-46 16H55.3333v12.7982H69Zm20 0H74v12.7982h15zm18 0H95v12.7982h12zm20 0h-12v12.7982h12z"/></svg>